<svg xmlns="http://www.w3.org/2000/svg" width="464.217" height="402.036" viewBox="0 0 464.217 402.036">
  <g id="Layer_2" data-name="Layer 2" transform="translate(0 0.001)">
    <g id="Floor">
      <path id="Floor-2" data-name="Floor" d="M66.57,368c88.76,45.38,232.66,45.38,321.42,0s88.75-119,0-164.34-232.66-45.38-321.42,0S-22.19,322.59,66.57,368Z" fill="#f5f5f5"/>
    </g>
    <g id="Shadows">
      <path id="Shadow" d="M356.85,295.47c4.86,2.81,14.42,1.84,21.35-2.16l39.93-23.19c6.93-4,8.6-9.53,3.72-12.34s-14.44-1.85-21.37,2.15l-39.9,23.21C353.65,287.14,352,292.66,356.85,295.47Z" fill="#ebebeb"/>
      <path id="Shadow-2" data-name="Shadow" d="M116.42,316.86,75.81,293.41l40.61-23.46Z" fill="#ebebeb"/>
      <path id="Shadow-3" data-name="Shadow" d="M231.23,330.89l-65.47-37.82,65.49-37.75Z" fill="#ebebeb"/>
    </g>
    <g id="Plants">
      <g id="Plants-2" data-name="Plants">
        <path id="Path_2386" data-name="Path 2386" d="M61.48,262c.11-9.5-6.53-29.26-16.24-41.71s-25.1-21.67-36.16-18c-10.29,3.38-9.35,16.85,3,25.92s30.9,20.49,36.19,36l11.26,19Z" fill="#b375ef"/>
        <path id="Path_2387" data-name="Path 2387" d="M61.48,262c.11-9.5-6.53-29.26-16.24-41.71s-25.1-21.67-36.16-18c-10.29,3.38-9.35,16.85,3,25.92s30.9,20.49,36.19,36l11.26,19Z" transform="translate(0 0.115)" opacity="0.1"/>
        <path id="Path_2388" data-name="Path 2388" d="M62,275a.69.69,0,0,1-.62-.56c-6-32.51-31.89-59.19-47.53-65.2a.7.7,0,0,1-.39-.9.68.68,0,0,1,.89-.4c15.93,6.13,42.33,33.25,48.4,66.25a.68.68,0,0,1-.56.8A.41.41,0,0,1,62,275Z" fill="#fff"/>
        <path id="Path_2389" data-name="Path 2389" d="M56.93,295.74c-1.46-5.36-7.88-14.25-18.34-21.66C27,265.88,12.29,262,9,255.69c-4-7.57,2.43-14.61,14.4-13S56.22,261,59.29,285.62Z" fill="#b375ef"/>
        <path id="Path_2390" data-name="Path 2390" d="M59.32,290.16a.69.69,0,0,1-.59-.47c-9.61-27.9-30.7-37.91-40.5-39.3a.7.7,0,0,1-.59-.79.69.69,0,0,1,.79-.59c10.84,1.54,31.8,11.75,41.61,40.23a.69.69,0,0,1-.43.88A.59.59,0,0,1,59.32,290.16Z" fill="#fff"/>
      </g>
      <g id="Plants-3" data-name="Plants">
        <path id="Path_2391" data-name="Path 2391" d="M416,235s1.33-20,13.14-34.9,11.08-21,2.94-24S405.07,191,409.28,215,416,235,416,235Z" fill="#b375ef"/>
        <path id="Path_2392" data-name="Path 2392" d="M416,235s1.33-20,13.14-34.9,11.08-21,2.94-24S405.07,191,409.28,215,416,235,416,235Z" transform="translate(-0.305)" fill="#b375ef" opacity="0.1"/>
        <path id="Path_2393" data-name="Path 2393" d="M412.43,223.54a.46.46,0,0,1-.46-.44c-1.38-22.06,14.2-40.15,20-44.25a.463.463,0,0,1,.53.76c-5.71,4-21,21.77-19.63,43.44a.47.47,0,0,1-.44.49Z" fill="#fff"/>
        <path id="Path_2394" data-name="Path 2394" d="M412.83,251.52a105.379,105.379,0,0,0,16.25,3.92c9.15,1.44,13.18-2.93,13.18-2.93s-3.6-8.57-8.79-11A51.111,51.111,0,0,1,449.33,248s5.59.08,7.81-8.43c0,0-3.31-5.13-14.4-7.9,0,0,6.75-1.7,16.47.78.73.29,3.84-10.72,4.78-15.81s-1.1-5-5.06-6.08-17.08-4-19.56-1.83-3.74,9.63-3.74,9.63a17.52,17.52,0,0,1-.38-9.44s-3.56-1.39-9.09.21c-4.53,1.32-4.75,4.4-4.54,7.88a33.871,33.871,0,0,0,2,8.84s-3.53-4.52-3.64-14.33c0,0-9.26,4.6-10.84,13.8C408.24,230.32,407,244.92,412.83,251.52Z" fill="#b375ef"/>
        <path id="Path_2395" data-name="Path 2395" d="M414.58,249.74a.51.51,0,0,0,.46-.3c7.38-15.32,34.8-33.13,44.63-35a.51.51,0,0,0,.4-.6.52.52,0,0,0-.6-.41c-10,1.94-37.86,20-45.36,35.61a.52.52,0,0,0,.24.68.49.49,0,0,0,.23.02Z" fill="#fff"/>
      </g>
    </g>
    <g id="Computer_Screen" data-name="Computer Screen">
      <path id="Path_2396" data-name="Path 2396" d="M57.9,302.82c-1.14,0-1.82-.94-1.82-2.5V132.11l206-118.93V180.71a8.92,8.92,0,0,1-4,7L59.54,302.31a3.44,3.44,0,0,1-1.64.51Z" fill="#fafafa"/>
      <path id="Path_2397" data-name="Path 2397" d="M261.49,14.19V180.71a8.44,8.44,0,0,1-3.74,6.49L59.24,301.8a2.77,2.77,0,0,1-1.35.44c-1.1,0-1.22-1.35-1.22-1.92V132.44L261.49,14.19m1.17-2L55.5,131.77V300.32c0,1.95,1,3.09,2.39,3.09a4,4,0,0,0,1.94-.59l198.5-114.61a9.58,9.58,0,0,0,4.33-7.5V12.16Z" fill="#e0e0e0"/>
      <path id="Path_2398" data-name="Path 2398" d="M55.5,131.77v28.14L262.66,40.31V12.16Z" fill="#b375ef"/>
      <path id="Path_2399" data-name="Path 2399" d="M71.75,133.27v4c0,.82.58,1.16,1.3.75l63.69-36.78v-7L73,131a2.89,2.89,0,0,0-1.25,2.27Z" fill="#fafafa"/>
      <path id="Path_2400" data-name="Path 2400" d="M143.56,90.31c.72-.42,1.3-.08,1.3.75v4a2.86,2.86,0,0,1-1.3,2.25l-6.82,3.94v-7Z" fill="#455a64"/>
      <path id="Path_2401" data-name="Path 2401" d="M55.5,122.7a9.58,9.58,0,0,1,4.33-7.5L258.33.59c2.39-1.38,4.33-.26,4.33,2.5v9.07L55.5,131.77Z" fill="#455a64"/>
      <path id="Path_2402" data-name="Path 2402" d="M239.64,16.09a4.51,4.51,0,0,0-2,3.52c0,1.3.91,1.82,2,1.18a4.51,4.51,0,0,0,2-3.52C241.67,16,240.76,15.45,239.64,16.09Z" fill="#27debf"/>
      <path id="Path_2403" data-name="Path 2403" d="M246.07,12.37a4.51,4.51,0,0,0-2,3.52c0,1.3.91,1.82,2,1.18a4.51,4.51,0,0,0,2-3.52C248.1,12.25,247.19,11.73,246.07,12.37Z" fill="#27debf"/>
      <path id="Path_2404" data-name="Path 2404" d="M252.51,8.65a4.51,4.51,0,0,0-2,3.52c0,1.3.91,1.82,2,1.17a4.47,4.47,0,0,0,2-3.51C254.54,8.53,253.63,8,252.51,8.65Z" fill="#27debf"/>
      <g id="Group_3665" data-name="Group 3665" opacity="0.1">
        <path id="Path_2405" data-name="Path 2405" d="M197.67,58.63a9.83,9.83,0,0,0-4.44,7.69c0,2.84,2,4,4.44,2.57a9.83,9.83,0,0,0,4.44-7.69C202.11,58.37,200.12,57.22,197.67,58.63Z"/>
        <path id="Path_2406" data-name="Path 2406" d="M177.36,70.36a9.81,9.81,0,0,0-4.44,7.69c0,2.83,2,4,4.44,2.56a9.81,9.81,0,0,0,4.44-7.69C181.8,70.09,179.81,68.94,177.36,70.36Z"/>
        <path id="Path_2407" data-name="Path 2407" d="M218,46.91a9.81,9.81,0,0,0-4.44,7.69c0,2.83,2,4,4.44,2.56a9.81,9.81,0,0,0,4.44-7.69C222.42,46.64,220.43,45.49,218,46.91Z"/>
        <path id="Path_2408" data-name="Path 2408" d="M238.29,35.16a9.81,9.81,0,0,0-4.44,7.69c0,2.83,2,4,4.44,2.56a9.81,9.81,0,0,0,4.44-7.69C242.73,34.89,240.74,33.74,238.29,35.16Z"/>
      </g>
      <path id="Path_2409" data-name="Path 2409" d="M76.08,162.1l48.2-27.83c2.4-1.38,4.33-.26,4.33,2.5v46.29a9.55,9.55,0,0,1-4.33,7.5l-48.2,27.83c-2.39,1.38-4.33.26-4.33-2.5V169.6a9.56,9.56,0,0,1,4.33-7.5Z" fill="#e0e0e0"/>
      <path id="Path_2410" data-name="Path 2410" d="M145.13,122.24l101-58.33c2.39-1.38,4.33-.26,4.33,2.5V112.7a9.58,9.58,0,0,1-4.33,7.5l-101,58.32c-2.4,1.38-4.33.26-4.33-2.5V129.74A9.56,9.56,0,0,1,145.13,122.24Z" fill="#e0e0e0"/>
      <path id="Path_2411" data-name="Path 2411" d="M76.08,232.46l76.64-44.25c2.39-1.38,4.33-.4,4.33,2.19a9.29,9.29,0,0,1-4.33,7.19L76.08,241.84c-2.39,1.38-4.33.4-4.33-2.19a9.29,9.29,0,0,1,4.33-7.19Z" fill="#e0e0e0"/>
      <path id="Path_2412" data-name="Path 2412" d="M76.08,248.88l76.64-44.25c2.39-1.38,4.33-.4,4.33,2.19a9.29,9.29,0,0,1-4.33,7.19L76.08,258.26c-2.39,1.38-4.33.4-4.33-2.19a9.29,9.29,0,0,1,4.33-7.19Z" fill="#e0e0e0"/>
      <path id="Path_2413" data-name="Path 2413" d="M76.08,265.29,152.72,221c2.39-1.38,4.33-.4,4.33,2.19a9.29,9.29,0,0,1-4.33,7.19L76.08,274.67c-2.39,1.38-4.33.4-4.33-2.19A9.29,9.29,0,0,1,76.08,265.29Z" fill="#e0e0e0"/>
    </g>
    <g id="Envelope">
      <g id="Letter">
        <path id="Path_2414" data-name="Path 2414" d="M112.37,209.63a5.74,5.74,0,0,1,2.59-4.5l132.92-76.74a5.78,5.78,0,0,1,5.19,0l2.93,1.7a5.71,5.71,0,0,1,2.6,4.5V236.46A5.76,5.76,0,0,1,256,241L123.09,317.7a5.8,5.8,0,0,1-5.2,0L115,316a5.77,5.77,0,0,1-2.6-4.5Z" fill="#b375ef"/>
        <path id="Path_2415" data-name="Path 2415" d="M113.12,207.07l7.38,4.25L257.84,132a5.38,5.38,0,0,0-1.84-1.94l-2.93-1.68a5.66,5.66,0,0,0-5.19,0L115,205.13A5.32,5.32,0,0,0,113.12,207.07Z" fill="#fff" opacity="0.4"/>
        <path id="Path_2416" data-name="Path 2416" d="M112.36,209.63V311.51A5.72,5.72,0,0,0,115,316l2.92,1.7a4.746,4.746,0,0,0,.72.32,5.59,5.59,0,0,0,1.07.25,6.422,6.422,0,0,0,2-.08l.5-.13.31-.13a1.51,1.51,0,0,1-1.24,0,1.81,1.81,0,0,1-.8-1.71V214.32a2.27,2.27,0,0,1,1.35-2.21l-1.35-.79-7.38-4.25a5.4,5.4,0,0,0-.74,2.56Z" opacity="0.1"/>
        <path id="Path_2417" data-name="Path 2417" d="M120.5,211.32l61.55,23a10,10,0,0,0,11.87-3.91l9.89-15.14,54.52-83.53-52.55,84.1,52.82,20.67a5.509,5.509,0,0,1-.81,2.59l-52.16-23-11.49,18.39a10,10,0,0,1-12.52,3.84l-8.18-3.61L121.3,317.91a1.81,1.81,0,0,1-.8-1.71v-1.7l52.69-79.92Z" opacity="0.2"/>
      </g>
    </g>
    <g id="Mobile_Screen" data-name="Mobile Screen">
      <path id="Path_2418" data-name="Path 2418" d="M230.17,94.36V328.27c0,2.76,1.93,3.88,4.33,2.5L339.57,270.1a9.55,9.55,0,0,0,4.33-7.5V28.7c0-2.76-1.93-3.88-4.33-2.5L234.5,86.86A9.55,9.55,0,0,0,230.17,94.36Z" fill="#fafafa" stroke="#e0e0e0" stroke-miterlimit="10" stroke-width="1.17"/>
      <path id="Path_2419" data-name="Path 2419" d="M236.26,98.72a2.36,2.36,0,0,1,1.12-1.82l12-6.91c.62-.36,1.13-.12,1.13.52a2.39,2.39,0,0,1-1.13,1.83l-12,6.9C236.76,99.6,236.26,99.37,236.26,98.72Z" fill="#455a64"/>
      <path id="Path_2420" data-name="Path 2420" d="M236.26,103.38a2.36,2.36,0,0,1,1.12-1.82l12-6.91c.62-.36,1.13-.13,1.13.52A2.38,2.38,0,0,1,249.35,97l-12,6.91C236.76,104.26,236.26,104,236.26,103.38Z" fill="#455a64"/>
      <path id="Path_2421" data-name="Path 2421" d="M236.26,108a2.35,2.35,0,0,1,1.12-1.82l12-6.91c.62-.36,1.13-.13,1.13.52a2.38,2.38,0,0,1-1.13,1.82l-12,6.91C236.76,108.92,236.26,108.69,236.26,108Z" fill="#455a64"/>
      <path id="Path_2422" data-name="Path 2422" d="M335.78,48.06V46.19c0-.11-.08-.16-.19-.12l-1.43.65a.16.16,0,0,1-.24-.11,3.57,3.57,0,0,0-.33-.71.43.43,0,0,1,0-.35l1-1.94a.22.22,0,0,0-.08-.28l-1-.6a.21.21,0,0,0-.29.07l-1.2,1.8a.4.4,0,0,1-.31.15,3,3,0,0,0-.78.08.17.17,0,0,1-.21-.15l-.16-1.57a.12.12,0,0,0-.2-.1l-1.62.93a.46.46,0,0,0-.19.3l-.16,1.8a.65.65,0,0,1-.17.34,11.686,11.686,0,0,0-.9.95.29.29,0,0,1-.31.09l-1-.36a.25.25,0,0,0-.29.1l-1.19,2.06a.24.24,0,0,0,.05.31l.83.72a.3.3,0,0,1,.08.32,10.353,10.353,0,0,0-.37,1.25.69.69,0,0,1-.21.32l-1.48,1a.42.42,0,0,0-.16.32v1.86c0,.11.08.17.18.12l1.44-.65a.18.18,0,0,1,.24.11,3.4,3.4,0,0,0,.32.72.39.39,0,0,1,0,.35l-1,1.93a.22.22,0,0,0,.09.28l1,.6a.22.22,0,0,0,.29-.06L327,57a.45.45,0,0,1,.32-.16,3.13,3.13,0,0,0,.78-.08.18.18,0,0,1,.21.16l.16,1.57a.12.12,0,0,0,.19.1l1.62-.94a.42.42,0,0,0,.2-.3l.16-1.8a.53.53,0,0,1,.17-.33,10.084,10.084,0,0,0,.89-1,.3.3,0,0,1,.32-.09l1,.36a.25.25,0,0,0,.29-.11l1.19-2.06a.26.26,0,0,0,0-.31l-.83-.71a.34.34,0,0,1-.09-.33,8.151,8.151,0,0,0,.38-1.25.56.56,0,0,1,.21-.31l1.47-1a.43.43,0,0,0,.14-.35Zm-6.33,5.87c-1.51.87-2.73.17-2.73-1.58a6,6,0,0,1,2.73-4.73c1.51-.87,2.74-.16,2.74,1.58a6,6,0,0,1-2.74,4.73Z" fill="#37474f"/>
      <path id="Path_2423" data-name="Path 2423" d="M287,94.16c12.27-7.09,22.23-1.34,22.23,12.83s-10,31.42-22.23,38.51-22.24,1.34-22.24-12.84S274.76,101.25,287,94.16Z" fill="#455a64"/>
      <path id="Path_2424" data-name="Path 2424" d="M286.88,105.32c4-2.3,7.21-.44,7.21,4.16A15.94,15.94,0,0,1,286.88,122c-4,2.3-7.21.44-7.21-4.16a15.94,15.94,0,0,1,7.21-12.52Z" fill="#b375ef"/>
      <path id="Path_2425" data-name="Path 2425" d="M301.09,129.84c0-7.56-5.3-10.62-11.85-6.84l-4.09,2.36c-6.54,3.78-11.85,13-11.85,20.52V148a12.22,12.22,0,0,0,3.82.58,20,20,0,0,0,9.92-3,43.81,43.81,0,0,0,14-13.91Z" fill="#b375ef"/>
      <path id="Path_2426" data-name="Path 2426" d="M267,166.59l40.13-23.17c1.2-.69,2.17-.2,2.17,1.1a4.64,4.64,0,0,1-2.17,3.59L267,171.28c-1.2.69-2.17.2-2.17-1.09a4.64,4.64,0,0,1,2.17-3.6Z" fill="#b375ef"/>
      <path id="Path_2427" data-name="Path 2427" d="M262.66,183.16,311.41,155c1.19-.69,2.16-.2,2.16,1.1a4.65,4.65,0,0,1-2.16,3.59l-48.75,28.18c-1.19.69-2.16.2-2.16-1.1A4.67,4.67,0,0,1,262.66,183.16Z" fill="#455a64"/>
      <path id="Path_2428" data-name="Path 2428" d="M312.71,177.7l13.65-7.88c.71-.41,1.3-.22,1.3.42a2.64,2.64,0,0,1-1.3,1.93l-13.65,7.88c-.72.41-1.3.22-1.3-.42a2.61,2.61,0,0,1,1.3-1.93Z" fill="#37474f"/>
      <path id="Path_2429" data-name="Path 2429" d="M244.52,212.39l20-11.57c1.2-.69,2.17-.13,2.17,1.25v13.76a4.78,4.78,0,0,1-2.17,3.75l-20,11.57c-1.2.69-2.17.13-2.17-1.25V216.14A4.78,4.78,0,0,1,244.52,212.39Z" fill="#b375ef"/>
      <path id="Path_2430" data-name="Path 2430" d="M247.71,214.31l13.65-7.88c.72-.41,1.3-.22,1.3.42a2.61,2.61,0,0,1-1.3,1.93l-13.65,7.88c-.71.41-1.29.22-1.29-.43A2.63,2.63,0,0,1,247.71,214.31Z" fill="#fafafa"/>
      <path id="Path_2431" data-name="Path 2431" d="M246.42,221.25v4c0,.83.58,1.16,1.29.75l13.65-7.88a2.89,2.89,0,0,0,1.3-2.25v-4c0-.83-.58-1.16-1.3-.75L247.71,219A2.89,2.89,0,0,0,246.42,221.25Z" fill="#fafafa"/>
      <path id="Path_2432" data-name="Path 2432" d="M277,193.63l20.05-11.57c1.19-.7,2.16-.14,2.16,1.25v13.76a4.8,4.8,0,0,1-2.16,3.75L277,212.39c-1.19.69-2.16.13-2.16-1.25V197.38A4.8,4.8,0,0,1,277,193.63Z" fill="#b375ef"/>
      <path id="Path_2433" data-name="Path 2433" d="M280.21,195.55l13.65-7.88c.72-.42,1.3-.23,1.3.42a2.58,2.58,0,0,1-1.3,1.92l-13.65,7.89c-.72.41-1.3.22-1.3-.43A2.6,2.6,0,0,1,280.21,195.55Z" fill="#fafafa"/>
      <path id="Path_2434" data-name="Path 2434" d="M278.91,202.49v4c0,.82.58,1.16,1.3.75l13.65-7.89a2.86,2.86,0,0,0,1.3-2.25v-4c0-.83-.58-1.16-1.3-.75l-13.65,7.88A2.86,2.86,0,0,0,278.91,202.49Z" fill="#fafafa"/>
      <path id="Path_2435" data-name="Path 2435" d="M309.51,174.86l20-11.57c1.2-.69,2.17-.13,2.17,1.25V178.3a4.76,4.76,0,0,1-2.17,3.75l-20,11.58c-1.2.69-2.16.13-2.16-1.25V178.61a4.77,4.77,0,0,1,2.16-3.75Z" fill="#b375ef"/>
      <path id="Path_2436" data-name="Path 2436" d="M312.71,176.79l13.65-7.88c.71-.42,1.29-.23,1.29.42a2.59,2.59,0,0,1-1.29,1.92l-13.65,7.88c-.72.42-1.3.23-1.3-.42a2.58,2.58,0,0,1,1.3-1.92Z" fill="#fafafa"/>
      <path id="Path_2437" data-name="Path 2437" d="M311.41,183.73v4c0,.83.58,1.17,1.3.75l13.65-7.88a2.88,2.88,0,0,0,1.3-2.25v-4c0-.83-.59-1.17-1.3-.75l-13.65,7.88A2.86,2.86,0,0,0,311.41,183.73Z" fill="#fafafa"/>
      <path id="Path_2438" data-name="Path 2438" d="M246.68,244l80.71-46.59c2.39-1.38,4.33-.4,4.33,2.19a9.29,9.29,0,0,1-4.33,7.19l-80.71,46.59c-2.39,1.38-4.33.4-4.33-2.19a9.29,9.29,0,0,1,4.33-7.19Z" fill="#e0e0e0"/>
      <path id="Path_2439" data-name="Path 2439" d="M246.68,262.73l80.71-46.59c2.39-1.38,4.33-.4,4.33,2.19a9.29,9.29,0,0,1-4.33,7.19l-80.71,46.59c-2.39,1.38-4.33.4-4.33-2.19a9.29,9.29,0,0,1,4.33-7.19Z" fill="#e0e0e0"/>
      <path id="Path_2440" data-name="Path 2440" d="M273,271l28.17-16.26c1.19-.69,2.16-.13,2.16,1.25v9.07a4.8,4.8,0,0,1-2.16,3.75L273,285.09c-1.19.69-2.16.13-2.16-1.25v-9.07A4.8,4.8,0,0,1,273,271Z" fill="#b375ef"/>
      <path id="Path_2441" data-name="Path 2441" d="M248.45,245.35a4.47,4.47,0,0,0-2,3.52c0,1.29.9,1.82,2,1.17a4.49,4.49,0,0,0,2-3.52C250.48,245.23,249.57,244.7,248.45,245.35Z" fill="#fafafa"/>
      <path id="Path_2442" data-name="Path 2442" d="M254.88,241.63a4.49,4.49,0,0,0-2,3.52c0,1.29.91,1.82,2,1.17a4.49,4.49,0,0,0,2-3.52C256.91,241.51,256,241,254.88,241.63Z" fill="#fafafa"/>
      <path id="Path_2443" data-name="Path 2443" d="M261.31,237.91a4.49,4.49,0,0,0-2,3.52c0,1.29.91,1.82,2,1.17a4.48,4.48,0,0,0,2-3.52C263.35,237.79,262.44,237.26,261.31,237.91Z" fill="#fafafa"/>
      <path id="Path_2444" data-name="Path 2444" d="M267.75,234.19a4.49,4.49,0,0,0-2,3.52c0,1.29.91,1.82,2,1.17a4.49,4.49,0,0,0,2-3.52C269.78,234.07,268.87,233.54,267.75,234.19Z" fill="#fafafa"/>
      <path id="Path_2445" data-name="Path 2445" d="M274.18,230.47a4.49,4.49,0,0,0-2,3.52c0,1.29.91,1.82,2,1.17a4.49,4.49,0,0,0,2-3.52C276.21,230.35,275.3,229.82,274.18,230.47Z" fill="#fafafa"/>
      <path id="Path_2446" data-name="Path 2446" d="M280.62,226.75a4.49,4.49,0,0,0-2,3.52c0,1.29.91,1.82,2,1.17a4.49,4.49,0,0,0,2-3.52C282.65,226.63,281.74,226.1,280.62,226.75Z" fill="#fafafa"/>
      <path id="Path_2447" data-name="Path 2447" d="M287.05,223a4.49,4.49,0,0,0-2,3.52c0,1.29.91,1.82,2,1.17a4.49,4.49,0,0,0,2-3.52C289.08,222.91,288.17,222.38,287.05,223Z" fill="#fafafa"/>
      <path id="Path_2448" data-name="Path 2448" d="M248.45,264.13a4.47,4.47,0,0,0-2,3.52c0,1.29.9,1.82,2,1.17a4.49,4.49,0,0,0,2-3.52C250.48,264,249.57,263.48,248.45,264.13Z" fill="#fafafa"/>
      <path id="Path_2449" data-name="Path 2449" d="M254.88,260.41a4.49,4.49,0,0,0-2,3.52c0,1.29.91,1.82,2,1.17a4.49,4.49,0,0,0,2-3.52C256.91,260.29,256,259.76,254.88,260.41Z" fill="#fafafa"/>
      <path id="Path_2450" data-name="Path 2450" d="M261.31,256.69a4.49,4.49,0,0,0-2,3.52c0,1.29.91,1.82,2,1.17a4.48,4.48,0,0,0,2-3.52C263.35,256.57,262.44,256,261.31,256.69Z" fill="#fafafa"/>
      <path id="Path_2451" data-name="Path 2451" d="M267.75,253a4.49,4.49,0,0,0-2,3.52c0,1.29.91,1.82,2,1.17a4.49,4.49,0,0,0,2-3.52C269.78,252.85,268.87,252.32,267.75,253Z" fill="#fafafa"/>
      <path id="Path_2452" data-name="Path 2452" d="M274.18,249.25a4.49,4.49,0,0,0-2,3.52c0,1.29.91,1.82,2,1.17a4.49,4.49,0,0,0,2-3.52C276.21,249.13,275.3,248.6,274.18,249.25Z" fill="#fafafa"/>
      <path id="Path_2453" data-name="Path 2453" d="M280.62,245.53a4.49,4.49,0,0,0-2,3.52c0,1.29.91,1.82,2,1.17a4.49,4.49,0,0,0,2-3.52C282.65,245.41,281.74,244.88,280.62,245.53Z" fill="#fafafa"/>
      <path id="Path_2454" data-name="Path 2454" d="M287.05,241.81a4.49,4.49,0,0,0-2,3.52c0,1.29.91,1.82,2,1.17a4.49,4.49,0,0,0,2-3.52C289.08,241.69,288.17,241.16,287.05,241.81Z" fill="#fafafa"/>
    </g>
    <g id="Key">
      <path id="Path_2455" data-name="Path 2455" d="M377.3,284.09a19.46,19.46,0,0,1-9.85-2.61c-7.2-4.16-11.34-12.87-11.34-23.89,0-19.38,12.32-41.68,28.05-50.76,8.47-4.88,16.88-5.41,23.68-1.49,7.21,4.17,11.34,12.87,11.34,23.9,0,19.38-12.32,41.67-28.05,50.75a27.76,27.76,0,0,1-13.83,4.1ZM398,216.7a14.8,14.8,0,0,0-6.83,2.22c-11.42,6.59-21.07,24.3-21.07,38.67,0,5.82,1.64,10.23,4.37,11.81,3.11,1.8,7.43-.16,9.73-1.49,11.42-6.59,21.07-24.3,21.07-38.67,0-5.82-1.63-10.24-4.36-11.81a5.721,5.721,0,0,0-2.91-.73Z" fill="#455a64"/>
      <path id="Path_2456" data-name="Path 2456" d="M407.72,232.34c0-10.89-6.85-14.91-6.85-14.91h0c2.73,1.57,4.36,6,4.36,11.81,0,14.37-9.65,32.08-21.07,38.67-2.3,1.33-6.62,3.29-9.73,1.49,0,0,5.79,3.59,13.78-.77C399.79,262.32,407.72,246.71,407.72,232.34Z" fill="#37474f"/>
      <path id="Path_2457" data-name="Path 2457" d="M396.72,96.25a7.21,7.21,0,1,0-14.42,0h0V211h0a3.56,3.56,0,0,0,2.11,2.94,11.25,11.25,0,0,0,10.2,0,3.56,3.56,0,0,0,2.11-2.94h0V96.27h0Z" fill="#37474f"/>
      <path id="Path_2458" data-name="Path 2458" d="M391,121.88a9.22,9.22,0,0,0-4.17-7.21,2.88,2.88,0,0,0-3-.26h0L366,124.65l-.43.26a1,1,0,0,0-.17.1,5.282,5.282,0,0,0-.85.7,5.89,5.89,0,0,0,6.95,9.37l.34-.19,17.91-10.32h0a3,3,0,0,0,1.25-2.69Z" fill="#455a64"/>
      <path id="Path_2459" data-name="Path 2459" d="M391,150.61a9.19,9.19,0,0,0-4.17-7.21,2.88,2.88,0,0,0-3-.27h0l-20.86,12-.43.25a1,1,0,0,0-.17.1,6.562,6.562,0,0,0-.86.7,5.895,5.895,0,0,0,6.96,9.37l.34-.19,21-12h0a2.93,2.93,0,0,0,1.19-2.75Z" fill="#455a64"/>
    </g>
  </g>
</svg>
